<svg id="visual" viewBox="0 0 960 540" width="960" height="540" xmlns="http://www.w3.org/2000/svg" xmlns:xlink="http://www.w3.org/1999/xlink" version="1.1"><rect x="0" y="0" width="960" height="540" fill="#ffffff"></rect><path d="M0 315L22.8 315.5C45.7 316 91.3 317 137 316.7C182.7 316.3 228.3 314.7 274 315.3C319.7 316 365.3 319 411.2 328.7C457 338.3 503 354.7 548.8 354.8C594.7 355 640.3 339 686 338.5C731.7 338 777.3 353 823 357.3C868.7 361.7 914.3 355.3 937.2 352.2L960 349L960 541L937.2 541C914.3 541 868.7 541 823 541C777.3 541 731.7 541 686 541C640.3 541 594.7 541 548.8 541C503 541 457 541 411.2 541C365.3 541 319.7 541 274 541C228.3 541 182.7 541 137 541C91.3 541 45.7 541 22.8 541L0 541Z" fill="#924dbf"></path><path d="M0 416L22.8 416.7C45.7 417.3 91.3 418.7 137 413.2C182.7 407.7 228.3 395.3 274 389C319.7 382.7 365.3 382.3 411.2 387.7C457 393 503 404 548.8 402C594.7 400 640.3 385 686 382.7C731.7 380.3 777.3 390.7 823 396.5C868.7 402.3 914.3 403.7 937.2 404.3L960 405L960 541L937.2 541C914.3 541 868.7 541 823 541C777.3 541 731.7 541 686 541C640.3 541 594.7 541 548.8 541C503 541 457 541 411.2 541C365.3 541 319.7 541 274 541C228.3 541 182.7 541 137 541C91.3 541 45.7 541 22.8 541L0 541Z" fill="#7940a6"></path><path d="M0 425L22.8 427.5C45.7 430 91.3 435 137 438.8C182.7 442.7 228.3 445.3 274 447C319.7 448.7 365.3 449.3 411.2 448.2C457 447 503 444 548.8 442.8C594.7 441.7 640.3 442.3 686 437.7C731.7 433 777.3 423 823 422.2C868.7 421.3 914.3 429.7 937.2 433.8L960 438L960 541L937.2 541C914.3 541 868.7 541 823 541C777.3 541 731.7 541 686 541C640.3 541 594.7 541 548.8 541C503 541 457 541 411.2 541C365.3 541 319.7 541 274 541C228.3 541 182.7 541 137 541C91.3 541 45.7 541 22.8 541L0 541Z" fill="#61328d"></path><path d="M0 506L22.8 500.8C45.7 495.7 91.3 485.3 137 485C182.7 484.7 228.3 494.3 274 494.8C319.7 495.3 365.3 486.7 411.2 486.8C457 487 503 496 548.8 501.3C594.7 506.7 640.3 508.3 686 507C731.7 505.7 777.3 501.3 823 500C868.7 498.7 914.3 500.3 937.2 501.2L960 502L960 541L937.2 541C914.3 541 868.7 541 823 541C777.3 541 731.7 541 686 541C640.3 541 594.7 541 548.8 541C503 541 457 541 411.2 541C365.3 541 319.7 541 274 541C228.3 541 182.7 541 137 541C91.3 541 45.7 541 22.8 541L0 541Z" fill="#4a2574"></path></svg>