<svg id="visual" viewBox="0 0 900 600" width="900" height="600" xmlns="http://www.w3.org/2000/svg" xmlns:xlink="http://www.w3.org/1999/xlink" version="1.1"><rect x="0" y="0" width="900" height="600" fill="#ffffff"></rect><path d="M0 248L21.5 247.3C43 246.7 86 245.3 128.8 245.7C171.7 246 214.3 248 257.2 247.3C300 246.7 343 243.3 385.8 232.7C428.7 222 471.3 204 514.2 203.8C557 203.7 600 221.3 642.8 221.8C685.7 222.3 728.3 205.7 771.2 200.8C814 196 857 203 878.5 206.5L900 210L900 0L878.5 0C857 0 814 0 771.2 0C728.3 0 685.7 0 642.8 0C600 0 557 0 514.2 0C471.3 0 428.7 0 385.8 0C343 0 300 0 257.2 0C214.3 0 171.7 0 128.8 0C86 0 43 0 21.5 0L0 0Z" fill="#924dbf"></path><path d="M0 135L21.5 134.3C43 133.7 86 132.3 128.8 138.7C171.7 145 214.3 159 257.2 166C300 173 343 173 385.8 167C428.7 161 471.3 149 514.2 151.3C557 153.7 600 170.3 642.8 172.8C685.7 175.3 728.3 163.7 771.2 157.2C814 150.7 857 149.3 878.5 148.7L900 148L900 0L878.5 0C857 0 814 0 771.2 0C728.3 0 685.7 0 642.8 0C600 0 557 0 514.2 0C471.3 0 428.7 0 385.8 0C343 0 300 0 257.2 0C214.3 0 171.7 0 128.8 0C86 0 43 0 21.5 0L0 0Z" fill="#7940a6"></path><path d="M0 126L21.5 123.2C43 120.3 86 114.7 128.8 110.3C171.7 106 214.3 103 257.2 101.2C300 99.3 343 98.7 385.8 100C428.7 101.3 471.3 104.7 514.2 106C557 107.3 600 106.7 642.8 111.8C685.7 117 728.3 128 771.2 129C814 130 857 121 878.5 116.5L900 112L900 0L878.5 0C857 0 814 0 771.2 0C728.3 0 685.7 0 642.8 0C600 0 557 0 514.2 0C471.3 0 428.7 0 385.8 0C343 0 300 0 257.2 0C214.3 0 171.7 0 128.8 0C86 0 43 0 21.5 0L0 0Z" fill="#61328d"></path><path d="M0 35L21.5 40.8C43 46.7 86 58.3 128.8 58.8C171.7 59.3 214.3 48.7 257.2 48.2C300 47.7 343 57.3 385.8 57.2C428.7 57 471.3 47 514.2 41C557 35 600 33 642.8 34.5C685.7 36 728.3 41 771.2 42.5C814 44 857 42 878.5 41L900 40L900 0L878.5 0C857 0 814 0 771.2 0C728.3 0 685.7 0 642.8 0C600 0 557 0 514.2 0C471.3 0 428.7 0 385.8 0C343 0 300 0 257.2 0C214.3 0 171.7 0 128.8 0C86 0 43 0 21.5 0L0 0Z" fill="#4a2574"></path></svg>